<svg width="983" height="999" viewBox="0 0 983 999" fill="none" xmlns="http://www.w3.org/2000/svg">
<mask id="mask0_471_195" style="mask-type:alpha" maskUnits="userSpaceOnUse" x="0" y="0" width="983" height="999">
<path d="M0.23877 0L911.739 0L983 999H0.23877V0Z" fill="#D9D9D9"/>
</mask>
<g mask="url(#mask0_471_195)">
<path d="M2.93213 287.254C2.93222 159.755 69.9998 54.7544 107 -9.74582L173 -133.746C365.833 -142.412 765.8 -143.646 823 -79.2458C894.5 1.25418 585 249.754 554.5 477.754C524.362 703.043 801.5 914.088 949 1050.75H-0.000488281C41.1662 1037.92 127.9 978.454 145.5 843.254C173 632.004 2.93198 486.365 2.93213 287.254Z" fill="black"/>
<path d="M80.9322 291.754C68.8575 177.908 162.432 54.7544 199.432 -9.74582L265.432 -133.746C458.266 -142.412 858.232 -143.646 915.432 -79.2458C986.932 1.25418 677.432 249.754 646.932 477.754C616.795 703.043 893.932 914.088 1041.43 1050.75H92.4322C133.599 1037.92 220.332 978.454 237.932 843.254C265.432 632.004 101.932 489.754 80.9322 291.754Z" fill="black"/>
</g>
</svg>
