<svg width="18" height="12" viewBox="0 0 18 12" fill="none" xmlns="http://www.w3.org/2000/svg">
<path fill-rule="evenodd" clip-rule="evenodd" d="M0.601562 1C0.601562 0.734784 0.727991 0.48043 0.953034 0.292893C1.17808 0.105357 1.4833 0 1.80156 0H16.2016C16.5198 0 16.825 0.105357 17.0501 0.292893C17.2751 0.48043 17.4016 0.734784 17.4016 1C17.4016 1.26522 17.2751 1.51957 17.0501 1.70711C16.825 1.89464 16.5198 2 16.2016 2H1.80156C1.4833 2 1.17808 1.89464 0.953034 1.70711C0.727991 1.51957 0.601563 1.26522 0.601562 1ZM0.601562 6C0.601562 5.73478 0.727991 5.48043 0.953034 5.29289C1.17808 5.10536 1.4833 5 1.80156 5H9.00156C9.31982 5 9.62505 5.10536 9.85009 5.29289C10.0751 5.48043 10.2016 5.73478 10.2016 6C10.2016 6.26522 10.0751 6.51957 9.85009 6.70711C9.62505 6.89464 9.31982 7 9.00156 7H1.80156C1.4833 7 1.17808 6.89464 0.953034 6.70711C0.727991 6.51957 0.601563 6.26522 0.601562 6ZM0.601562 11C0.601562 10.7348 0.727991 10.4804 0.953034 10.2929C1.17808 10.1054 1.4833 10 1.80156 10H16.2016C16.5198 10 16.825 10.1054 17.0501 10.2929C17.2751 10.4804 17.4016 10.7348 17.4016 11C17.4016 11.2652 17.2751 11.5196 17.0501 11.7071C16.825 11.8946 16.5198 12 16.2016 12H1.80156C1.4833 12 1.17808 11.8946 0.953034 11.7071C0.727991 11.5196 0.601563 11.2652 0.601562 11Z" fill="white"/>
</svg>
